<?xml version="1.0" encoding="utf-8"?>
<!-- Generator: Adobe Illustrator 19.0.0, SVG Export Plug-In . SVG Version: 6.00 Build 0)  -->
<svg version="1.1" id="Capa_1" xmlns="http://www.w3.org/2000/svg" xmlns:xlink="http://www.w3.org/1999/xlink" x="0px" y="0px"
	 viewBox="273 -182.5 1158 1157.5" style="enable-background:new 273 -182.5 1158 1157.5;" xml:space="preserve">
<style type="text/css">
	.st0{fill:#FFFFFF;stroke:#DFDFDF;stroke-width:20;stroke-miterlimit:10;}
	.st1{fill:#162D5F;}
	.st2{fill:#F58021;}
</style>
<circle class="st0" cx="852" cy="396.3" r="570.6"/>
<g>
	<path class="st1" d="M507.6,498.9c-4.2,0-7.7-3.5-7.7-7.7V99.4c0-23.9,19.4-43.3,43.3-43.3h617.4c11.6,0,22.4,4.5,30.6,12.7
		s12.7,19.1,12.7,30.6v391.8c0,4.2-3.5,7.7-7.7,7.7H507.6z M543.3,71.4c-15.4,0-27.9,12.5-27.9,27.9v384.1h673.3v-384
		c0-15.4-12.5-27.9-27.9-27.9L543.3,71.4L543.3,71.4z"/>
	<path class="st1" d="M543.3,593.9c-23.9,0-43.3-19.4-43.3-43.3v-59.4c0-4.2,3.5-7.7,7.7-7.7h688.7c4.2,0,7.7,3.5,7.7,7.7v59.4
		c0,23.9-19.4,43.3-43.3,43.3H543.3z M515.3,550.6c0,15.4,12.5,27.9,27.9,27.9h617.4c15.4,0,27.9-12.5,27.9-27.9v-51.7H515.3
		L515.3,550.6L515.3,550.6z"/>
	<path class="st1" d="M816.3,546.4c-4.2,0-7.7-3.5-7.7-7.7s3.5-7.7,7.7-7.7h71.2c4.2,0,7.7,3.5,7.7,7.7s-3.5,7.7-7.7,7.7H816.3z"/>
	<path class="st1" d="M555,498.9c-4.2,0-7.7-3.5-7.7-7.7v-380c0-4.2,3.5-7.7,7.7-7.7h593.7c4.2,0,7.7,3.5,7.7,7.7v380
		c0,4.2-3.5,7.7-7.7,7.7H555z M562.8,483.5H1141V118.9H562.8V483.5z"/>
	<path class="st1" d="M697.5,736.4c-17.3,0-31.4-14.1-31.4-31.4c0-17.3,14.1-31.4,31.4-31.4h308.7c17.3,0,31.4,14.1,31.4,31.4
		c0,17.3-14.1,31.4-31.4,31.4H697.5z M697.5,688.9c-8.8,0-16,7.2-16,16s7.2,16,16,16h308.7c8.9,0,16-7.2,16-16s-7.2-16-16-16H697.5z
		"/>
	<path class="st1" d="M721.3,688.9c-4.2,0-7.7-3.5-7.7-7.7s3.5-7.7,7.7-7.7c21,0,37.1-7.6,47.9-22.6c10.4-14.6,15.7-36.3,15.7-64.7
		c0-4.2,3.5-7.7,7.7-7.7h118.7c4.2,0,7.7,3.5,7.7,7.7c0,28.3,5.3,50.1,15.7,64.7c10.7,15,26.8,22.6,47.9,22.6c4.2,0,7.7,3.5,7.7,7.7
		s-3.5,7.7-7.7,7.7H721.3z M799.9,597.8c-1.7,29.9-9.7,53-23.9,68.7l-6.3,7H934l-6.3-7c-14.2-15.7-22.2-38.8-23.9-68.7l-0.2-3.9
		H800.1L799.9,597.8z"/>
	<path class="st2" d="M1021.2,451.4c-2,0-4-0.8-5.4-2.3l-31.6-31.6l-19.7,19.8c-1.4,1.4-3.4,2.2-5.5,2.2c-0.6,0-1.3-0.1-1.9-0.2
		c-2.6-0.7-4.7-2.7-5.5-5.3l-35.6-118.7c-0.8-2.7-0.1-5.6,1.9-7.6c1.5-1.5,3.4-2.3,5.4-2.3c0.7,0,1.5,0.1,2.2,0.3l118.7,35.6
		c2.6,0.8,4.6,2.9,5.3,5.5c0.7,2.6-0.1,5.4-2,7.3l-18.9,18.9l31.6,31.6c1.5,1.5,2.3,3.4,2.3,5.4s-0.8,4-2.3,5.4l-33.6,33.6
		C1025.2,450.6,1023.2,451.4,1021.2,451.4z M984,400.4c3,0,5.9,1.2,8,3.3l29.1,29.1l22.7-22.7l-30.5-30.5c-1.8-1.7-2.7-4.1-2.7-6.6
		s1-4.8,2.7-6.6l14.1-14.1l-92.7-27.8l27.8,92.7l13.5-13.5C978.3,401.6,981,400.4,984,400.4z"/>
	<path class="st2" d="M661.9,225.8c-4.2,0-7.7-3.5-7.7-7.7v-59.4c0-4.2,3.5-7.7,7.7-7.7h332.5c4.2,0,7.7,3.5,7.7,7.7v59.4
		c0,4.2-3.5,7.7-7.7,7.7L661.9,225.8L661.9,225.8z M669.6,210.4h317.1v-44H669.6V210.4z"/>
	<path class="st2" d="M709.4,344.5c-4.2,0-7.7-3.5-7.7-7.7v-47.5c0-4.2,3.5-7.7,7.7-7.7h95c4.2,0,7.7,3.5,7.7,7.7v47.5
		c0,4.2-3.5,7.7-7.7,7.7H709.4z M717.1,329.1h79.6V297h-79.6V329.1z"/>
	<path class="st2" d="M661.9,392c-4.2,0-7.7-3.5-7.7-7.7V158.7c0-4.2,3.5-7.7,7.7-7.7h332.5c4.2,0,7.7,3.5,7.7,7.7v175.7
		c0,2.4-1.2,4.7-3.1,6.2c-1.3,1-3,1.5-4.6,1.5l0,0c-0.7,0-1.5-0.1-2.2-0.3l-57.5-17.3L952,382c0.7,2.3,0.2,4.9-1.2,6.8
		s-3.7,3.1-6.2,3.1L661.9,392L661.9,392z M669.6,376.6h264.6l-18.4-61.3c-0.8-2.7-0.1-5.7,1.9-7.7c1.5-1.5,3.4-2.3,5.4-2.3
		c0.7,0,1.5,0.1,2.2,0.3l61.3,18.4V166.4h-317V376.6z"/>
</g>
</svg>
