<?xml version="1.0" encoding="utf-8"?>
<!-- Generator: Adobe Illustrator 19.0.0, SVG Export Plug-In . SVG Version: 6.00 Build 0)  -->
<svg version="1.1" id="Capa_1" xmlns="http://www.w3.org/2000/svg" xmlns:xlink="http://www.w3.org/1999/xlink" x="0px" y="0px"
	 viewBox="273 -182.5 1158 1157.5" style="enable-background:new 273 -182.5 1158 1157.5;" xml:space="preserve">
<style type="text/css">
	.st0{fill:#FFFFFF;stroke:#DFDFDF;stroke-width:20;stroke-miterlimit:10;}
	.st1{fill:#162D5F;}
	.st2{fill:#F58021;}
</style>
<g>
	<circle class="st0" cx="852" cy="396.3" r="570.6"/>
	<path class="st1" d="M507.7,499c-4.2,0-7.7-3.5-7.7-7.7V99.4c0-23.9,19.4-43.3,43.3-43.3h617.4c11.6,0,22.4,4.5,30.6,12.7
		s12.7,19.1,12.7,30.6v391.8c0,4.2-3.5,7.7-7.7,7.7H507.7z M543.3,71.4c-15.4,0-27.9,12.5-27.9,27.9v384.1h673.3v-384
		c0-15.4-12.5-27.9-27.9-27.9L543.3,71.4L543.3,71.4z"/>
	<path class="st1" d="M543.3,594c-23.9,0-43.3-19.4-43.3-43.3v-59.4c0-4.2,3.5-7.7,7.7-7.7h688.7c4.2,0,7.7,3.5,7.7,7.7v59.4
		c0,23.9-19.4,43.3-43.3,43.3H543.3z M515.4,550.7c0,15.4,12.5,27.9,27.9,27.9h617.4c15.4,0,27.9-12.5,27.9-27.9V499H515.3
		L515.4,550.7L515.4,550.7z"/>
	<path class="st1" d="M816.4,546.5c-4.2,0-7.7-3.5-7.7-7.7s3.5-7.7,7.7-7.7h71.2c4.2,0,7.7,3.5,7.7,7.7s-3.5,7.7-7.7,7.7H816.4z"/>
	<path class="st1" d="M555.1,499c-4.2,0-7.7-3.5-7.7-7.7v-380c0-4.2,3.5-7.7,7.7-7.7h593.7c4.2,0,7.7,3.5,7.7,7.7v380
		c0,4.2-3.5,7.7-7.7,7.7H555.1z M562.8,483.5h578.3V118.9H562.8V483.5z"/>
	<path class="st1" d="M697.6,736.5c-17.3,0-31.4-14.1-31.4-31.4c0-17.3,14.1-31.4,31.4-31.4h308.7c17.3,0,31.4,14.1,31.4,31.4
		c0,17.3-14.1,31.4-31.4,31.4H697.6z M697.6,689c-8.8,0-16,7.2-16,16s7.2,16,16,16h308.7c8.9,0,16-7.2,16-16s-7.2-16-16-16H697.6z"
		/>
	<path class="st1" d="M721.4,689c-4.2,0-7.7-3.5-7.7-7.7s3.5-7.7,7.7-7.7c21,0,37.1-7.6,47.9-22.6c10.4-14.6,15.7-36.3,15.7-64.7
		c0-4.2,3.5-7.7,7.7-7.7h118.7c4.2,0,7.7,3.5,7.7,7.7c0,28.3,5.3,50.1,15.7,64.7c10.7,15,26.8,22.6,47.9,22.6c4.2,0,7.7,3.5,7.7,7.7
		s-3.5,7.7-7.7,7.7H721.4z M800,597.8c-1.7,29.9-9.7,53-23.9,68.7l-6.3,7h164.3l-6.3-7c-14.2-15.7-22.2-38.8-23.9-68.7l-0.2-3.9
		H800.2L800,597.8z"/>
	<g>
		<path class="st2" d="M818.4,285.5c28.1,0,50.8-23.7,50.8-52.8s-22.7-52.8-50.8-52.8c-28.1,0-50.8,23.7-50.8,52.8
			S790.4,285.5,818.4,285.5z M782.5,249.6c4.9,2.1,10,3.6,15.2,4.5c0.9,5.4,2.4,10.7,4.3,15.8C793.4,265.9,786.5,258.6,782.5,249.6z
			 M796.2,223.4c-0.2,3.1-0.3,6.2-0.3,9.3s0.1,6.2,0.3,9.3c-11.3-2.7-17.3-7.1-17.3-9.3C778.9,230.4,784.9,226.1,796.2,223.4
			L796.2,223.4z M818.4,191.6c2.1,0,6.3,6.2,8.9,18c-3-0.2-5.9-0.3-8.9-0.3s-6,0.1-8.9,0.3C812.1,197.8,816.3,191.6,818.4,191.6z
			 M818.4,220.9c3.9,0,7.4,0.2,10.8,0.5c0.3,3.5,0.5,7.2,0.5,11.2s-0.2,7.7-0.5,11.2c-3.3,0.3-6.9,0.5-10.8,0.5
			c-3.9,0-7.4-0.2-10.8-0.5c-0.3-3.5-0.5-7.2-0.5-11.2s0.2-7.7,0.5-11.2C811,221.1,814.5,220.9,818.4,220.9z M857.9,232.6
			c0,2.2-6,6.6-17.3,9.3c0.2-3.1,0.3-6.2,0.3-9.3s-0.1-6.2-0.3-9.3C852,226.1,857.9,230.4,857.9,232.6z M818.4,273.8
			c-2.1,0-6.3-6.2-8.9-18c3,0.2,5.9,0.3,8.9,0.3s6-0.1,8.9-0.3C824.7,267.5,820.6,273.8,818.4,273.8z M834.8,270
			c2-5.1,3.4-10.4,4.3-15.8c5.2-0.9,10.3-2.5,15.2-4.5C850.3,258.6,843.4,265.9,834.8,270z M854.3,215.6c-4.9-2.1-10-3.6-15.2-4.5
			c-0.9-5.4-2.4-10.7-4.3-15.8C843.4,199.4,850.4,206.6,854.3,215.6z M802,195.4c-2,5.1-3.4,10.4-4.3,15.8
			c-5.2,0.9-10.3,2.5-15.2,4.5C786.5,206.6,793.4,199.4,802,195.4z"/>
		<path class="st1" d="M739.4,185.6c0-3.2,2.5-5.9,5.6-5.9h22.6v-11.7H745c-9.4,0-16.9,7.9-16.9,17.6v23.5h11.3V185.6z"/>
		<path class="st1" d="M739.4,397v-23.5h-11.3V397c0,9.7,7.6,17.6,16.9,17.6h22.6v-11.7H745C741.9,403,739.4,400.4,739.4,397z"/>
		<path class="st1" d="M897.5,185.6v23.5h11.3v-23.5c0-9.7-7.6-17.6-16.9-17.6h-22.6v11.7h22.6C894.9,179.9,897.5,182.4,897.5,185.6
			z"/>
		<path class="st1" d="M1009.4,318.5l-78.1-48.1V162.3c0-9.7-7.6-17.6-16.9-17.6h-192c-9.4,0-16.9,7.9-16.9,17.6v258.4
			c0,9.7,7.6,17.6,16.9,17.6h158.1v5.9c0,29.2,22.8,52.8,50.8,52.8H1033c6.2,0,11.3-5.3,11.3-11.7V383.5
			C1044.3,357,1031.1,332.4,1009.4,318.5z M716.8,420.5V162.3c0-3.2,2.5-5.9,5.6-5.9h192c3.1,0,5.6,2.6,5.6,5.9v221.6l-41.9-42.4
			c-10.9-11.6-28.8-11.7-39.9-0.3c-11.1,11.4-11.3,30-0.3,41.5l36,43.9H722.4C719.3,426.5,716.8,423.9,716.8,420.5z M1033,485.1
			H931.3c-21.8,0-39.5-18.4-39.5-41.1v-11.7c0-1.4-0.5-2.7-1.3-3.8l-44.2-53.9c-6.6-6.9-6.6-18,0-24.9c6.7-6.7,17.3-6.7,24,0.1
			l74.1,75l7.9-8.4l-21-21.2V284l72.2,44.5c18.3,11.7,29.5,32.5,29.4,54.9L1033,485.1L1033,485.1z"/>
		<path class="st1" d="M992.5,336.3l-5.9,10c18.3,11.7,29.5,32.5,29.4,54.9h11.3C1027.4,374.6,1014.2,350,992.5,336.3z"/>
		<rect x="756.3" y="297.3" class="st1" width="11.3" height="11.7"/>
		<rect x="778.9" y="297.3" class="st1" width="79" height="11.7"/>
		<rect x="869.2" y="297.3" class="st1" width="11.3" height="11.7"/>
	</g>
</g>
</svg>
