<?xml version="1.0" encoding="utf-8"?>
<!-- Generator: Adobe Illustrator 19.0.0, SVG Export Plug-In . SVG Version: 6.00 Build 0)  -->
<svg version="1.1" id="Capa_1" xmlns="http://www.w3.org/2000/svg" xmlns:xlink="http://www.w3.org/1999/xlink" x="0px" y="0px"
	 viewBox="273 -182.5 1158 1157.5" style="enable-background:new 273 -182.5 1158 1157.5;" xml:space="preserve">
<style type="text/css">
	.st0{fill:#FFFFFF;stroke:#DFDFDF;stroke-width:20;stroke-miterlimit:10;}
	.st1{fill:#162D5F;}
	.st2{fill:#F58021;}
</style>
<g>
	<circle class="st0" cx="852" cy="396.3" r="570.6"/>
	<path class="st1" d="M507.7,499c-4.2,0-7.7-3.5-7.7-7.7V99.4c0-23.9,19.4-43.3,43.3-43.3h617.4c11.6,0,22.4,4.5,30.6,12.7
		s12.7,19.1,12.7,30.6v391.8c0,4.2-3.5,7.7-7.7,7.7H507.7z M543.3,71.4c-15.4,0-27.9,12.5-27.9,27.9v384.1h673.3v-384
		c0-15.4-12.5-27.9-27.9-27.9L543.3,71.4L543.3,71.4z"/>
	<path class="st1" d="M543.3,594c-23.9,0-43.3-19.4-43.3-43.3v-59.4c0-4.2,3.5-7.7,7.7-7.7h688.7c4.2,0,7.7,3.5,7.7,7.7v59.4
		c0,23.9-19.4,43.3-43.3,43.3H543.3z M515.4,550.7c0,15.4,12.5,27.9,27.9,27.9h617.4c15.4,0,27.9-12.5,27.9-27.9V499H515.3
		L515.4,550.7L515.4,550.7z"/>
	<path class="st1" d="M816.4,546.5c-4.2,0-7.7-3.5-7.7-7.7s3.5-7.7,7.7-7.7h71.2c4.2,0,7.7,3.5,7.7,7.7s-3.5,7.7-7.7,7.7H816.4z"/>
	<path class="st1" d="M555.1,499c-4.2,0-7.7-3.5-7.7-7.7v-380c0-4.2,3.5-7.7,7.7-7.7h593.7c4.2,0,7.7,3.5,7.7,7.7v380
		c0,4.2-3.5,7.7-7.7,7.7H555.1z M562.8,483.5h578.3V118.9H562.8V483.5z"/>
	<path class="st1" d="M697.6,736.5c-17.3,0-31.4-14.1-31.4-31.4c0-17.3,14.1-31.4,31.4-31.4h308.7c17.3,0,31.4,14.1,31.4,31.4
		c0,17.3-14.1,31.4-31.4,31.4H697.6z M697.6,689c-8.8,0-16,7.2-16,16s7.2,16,16,16h308.7c8.9,0,16-7.2,16-16s-7.2-16-16-16H697.6z"
		/>
	<path class="st1" d="M721.4,689c-4.2,0-7.7-3.5-7.7-7.7s3.5-7.7,7.7-7.7c21,0,37.1-7.6,47.9-22.6c10.4-14.6,15.7-36.3,15.7-64.7
		c0-4.2,3.5-7.7,7.7-7.7h118.7c4.2,0,7.7,3.5,7.7,7.7c0,28.3,5.3,50.1,15.7,64.7c10.7,15,26.8,22.6,47.9,22.6c4.2,0,7.7,3.5,7.7,7.7
		s-3.5,7.7-7.7,7.7H721.4z M800,597.8c-1.7,29.9-9.7,53-23.9,68.7l-6.3,7h164.3l-6.3-7c-14.2-15.7-22.2-38.8-23.9-68.7l-0.2-3.9
		H800.2L800,597.8z"/>
	<g>
		<path class="st2" d="M615.5,348.8c-3.5,0-6.4-2.9-6.4-6.4s2.9-6.4,6.4-6.4h123.9c3.5,0,6.4,2.9,6.4,6.4s-2.9,6.4-6.4,6.4H615.5z"
			/>
		<path class="st2" d="M667.5,386.8c-3.5,0-6.4-2.9-6.4-6.4s2.9-6.4,6.4-6.4h102.9c3.5,0,6.4,2.9,6.4,6.4s-2.9,6.4-6.4,6.4H667.5z"
			/>
		<path class="st2" d="M713.8,312.5c-3.5,0-6.4-2.9-6.4-6.4s2.9-6.4,6.4-6.4h56.5c3.5,0,6.4,2.9,6.4,6.4s-2.9,6.4-6.4,6.4H713.8z"/>
		<path class="st2" d="M825.4,408.5c-5.6,0-11.6-0.4-16.7-3.6c-6.9-4.3-11.2-11.9-11.2-20V274.5c0-3.5,2.9-6.4,6.4-6.4
			s6.4,2.9,6.4,6.4v110.3c0,2.8,1.1,5.4,3,7.4l2,2.1l74.4-111.4c0.9-1.4,1.9-2.8,3.1-4.2l1.3-1.6L817,199.4l-1.6,0.9
			c-3.2,1.9-5.2,5.4-5.2,9.1v25.4c0,3.5-2.9,6.4-6.4,6.4s-6.4-2.9-6.4-6.4v-25.4c0-11.5,8.2-21.2,19.5-23.1l252.8-0.3
			c0.5,0,1.1,0.1,1.7,0.3h0.1h0.1c11.4,1.9,19.7,11.6,19.7,23.2v175.4c0,10.4-7,19.7-17,22.6l-55.6,0.9H834.6c-1.5,0-3.1,0-4.6,0.1
			C828.4,408.4,826.9,408.5,825.4,408.5z M901.6,288.5c-0.4,0.5-0.8,1.1-1.2,1.6L830,395.5h228.9l-70.4-105.4
			c-0.4-0.5-0.7-1.1-1.1-1.6l-1.6-2.2l-16.5,16.6l-0.2,0.2c-6.7,6.2-15.4,9.7-24.6,9.7c-9.2,0-18-3.4-24.6-9.7l-0.2-0.2l-16.4-16.6
			L901.6,288.5z M994.8,277l1.3,1.6c1.2,1.4,2.2,2.8,3.1,4.2l74.4,111.4l2-2.1c1.9-2,3-4.6,3-7.4V209.4c0-3.8-1.9-7.2-5.2-9.1
			l-1.6-0.9L994.8,277z M928.7,293.5c4.3,4,9.9,6.1,15.8,6.1s11.5-2.1,15.7-6l94.1-94.9H834.6L928.7,293.5z"/>
	</g>
</g>
</svg>
